<?xml version="1.0" encoding="UTF-8" standalone="no" ?>
<!DOCTYPE svg PUBLIC "-//W3C//DTD SVG 1.1//EN" "http://www.w3.org/Graphics/SVG/1.1/DTD/svg11.dtd">
<svg xmlns="http://www.w3.org/2000/svg" xmlns:xlink="http://www.w3.org/1999/xlink" version="1.1" width="1080" height="1080" viewBox="0 0 1080 1080" xml:space="preserve">
<desc>Created with Fabric.js 5.2.4</desc>
<defs>
</defs>
<g transform="matrix(1 0 0 1 540 540)" id="b0083bac-1086-4d2c-8a22-cbba8d521b50"  >
<rect style="stroke: none; stroke-width: 1; stroke-dasharray: none; stroke-linecap: butt; stroke-dashoffset: 0; stroke-linejoin: miter; stroke-miterlimit: 4; fill: rgb(255,255,255); fill-rule: nonzero; opacity: 1; visibility: hidden;" vector-effect="non-scaling-stroke"  x="-540" y="-540" rx="0" ry="0" width="1080" height="1080" />
</g>
<g transform="matrix(1 0 0 1 540 540)" id="2a8035b1-904d-476e-b80a-9c54e9cc19de"  >
</g>
<g transform="matrix(4.85 0 0 4.85 540 540)"  >
<g style=""   >
		<g transform="matrix(1 0 0 1 92.55 -86.46)"  >
<path style="stroke: none; stroke-width: 1; stroke-dasharray: none; stroke-linecap: butt; stroke-dashoffset: 0; stroke-linejoin: miter; stroke-miterlimit: 4; fill: rgb(0,0,0); fill-rule: nonzero; opacity: 1;" vector-effect="non-scaling-stroke"  transform=" translate(-951.56, -20.72)" d="M 959.844 24.727 L 943.247 1.5 L 934.3 1.5 L 934.3 39.945 L 943.247 39.945 L 943.247 15.84 L 960.223 39.745999999999995 L 960.3629999999999 39.946 L 968.8109999999999 39.946 L 968.8109999999999 1.5 L 959.8439999999999 1.5 Z" stroke-linecap="round" />
</g>
		<g transform="matrix(1 0 0 1 -80.03 -0.18)"  >
<path style="stroke: none; stroke-width: 1; stroke-dasharray: none; stroke-linecap: butt; stroke-dashoffset: 0; stroke-linejoin: miter; stroke-miterlimit: 4; fill: rgb(0,0,0); fill-rule: nonzero; opacity: 1;" vector-effect="non-scaling-stroke"  transform=" translate(-85.21, -452.72)" d="M 82.678 433.5 L 67.4 433.5 L 67.4 471.945 L 82.658 471.945 C 94.84100000000001 471.945 103.029 464.236 103.029 452.752 C 103.049 441.249 94.861 433.5 82.678 433.5 Z M 93.922 452.753 C 93.922 459.344 89.289 463.937 82.678 463.937 L 76.367 463.937 L 76.367 441.509 L 82.678 441.509 C 89.608 441.509 93.922 445.822 93.922 452.753 Z" stroke-linecap="round" />
</g>
		<g transform="matrix(1 0 0 1 6.27 -0.18)"  >
<path style="stroke: none; stroke-width: 1; stroke-dasharray: none; stroke-linecap: butt; stroke-dashoffset: 0; stroke-linejoin: miter; stroke-miterlimit: 4; fill: rgb(0,0,0); fill-rule: nonzero; opacity: 1;" vector-effect="non-scaling-stroke"  transform=" translate(-530.36, -452.72)" d="M 515.8 471.945 L 544.918 471.945 L 544.918 464.056 L 524.747 464.056 L 524.747 456.327 L 541.8 456.327 L 541.8 448.5 L 524.747 448.5 L 524.747 441.35 L 544.918 441.35 L 544.918 433.5 L 515.8 433.5 Z" stroke-linecap="round" />
</g>
		<g transform="matrix(1 0 0 1 -80.01 86.1)"  >
<path style="stroke: none; stroke-width: 1; stroke-dasharray: none; stroke-linecap: butt; stroke-dashoffset: 0; stroke-linejoin: miter; stroke-miterlimit: 4; fill: rgb(0,0,0); fill-rule: nonzero; opacity: 1;" vector-effect="non-scaling-stroke"  transform=" translate(-85.31, -884.72)" d="M 82.758 865.5 L 67.5 865.5 L 67.5 903.945 L 82.758 903.945 C 94.941 903.945 103.12899999999999 896.2360000000001 103.12899999999999 884.7520000000001 C 103.129 873.249 94.941 865.5 82.758 865.5 Z M 94 884.753 C 94 891.344 89.367 895.937 82.756 895.937 L 76.467 895.937 L 76.467 873.509 L 82.758 873.509 C 89.688 873.509 94 877.822 94 884.753 Z" stroke-linecap="round" />
</g>
		<g transform="matrix(1 0 0 1 6.28 -86.45)"  >
<path style="stroke: none; stroke-width: 1; stroke-dasharray: none; stroke-linecap: butt; stroke-dashoffset: 0; stroke-linejoin: miter; stroke-miterlimit: 4; fill: rgb(0,0,0); fill-rule: nonzero; opacity: 1;" vector-effect="non-scaling-stroke"  transform=" translate(-518.76, -19.52)" d="M 527.463 22.049 C 527.4674216034155 26.576175723525488 523.802173038266 30.250377020880954 519.275 30.256999999999998 L 518.257 30.256999999999998 C 513.7337153621544 30.24103869668186 510.07392617919703 26.572310116599585 510.06899999999996 22.049 L 510.06899999999996 0 L 501.3 0 L 501.3 22.049 C 501.2999686096687 31.420684485932668 508.884346904346 39.02474387550059 518.256 39.049 L 519.274 39.049 C 528.645653095654 39.02474387550062 536.2300313903313 31.420684485932696 536.23 22.049000000000007 L 536.23 0 L 527.463 0 Z" stroke-linecap="round" />
</g>
		<g transform="matrix(1 0 0 1 6.15 86.09)"  >
<path style="stroke: none; stroke-width: 1; stroke-dasharray: none; stroke-linecap: butt; stroke-dashoffset: 0; stroke-linejoin: miter; stroke-miterlimit: 4; fill: rgb(0,0,0); fill-rule: nonzero; opacity: 1;" vector-effect="non-scaling-stroke"  transform=" translate(-509.67, -882.31)" d="M 509.792 862.5 C 501.7680527610669 862.4513985814342 494.5071310453402 867.2475008643132 491.40276431797423 874.6467574900217 C 488.29839759060826 882.0460141157303 489.96367990921 890.5871156880745 495.62031000057675 896.2782164076641 C 501.27694009194346 901.9693171272537 509.8077669878838 903.6864582808138 517.2257469538811 900.6271013851359 C 524.6437269198783 897.5677444894579 529.4838528108328 890.3360944267503 529.4839999999999 882.312 C 529.507251036146 871.407334033338 520.6966059811366 862.5429982711073 509.792 862.5 Z M 520.337 882.332 C 520.1223994345222 888.1047092855191 515.3059373441577 892.631798458448 509.53101160463933 892.4887648929069 C 503.75608586512107 892.3457313273658 499.16964624768934 887.5857507514368 499.2410908387027 881.8094957736646 C 499.31253542971604 876.0332407958925 504.0153032039334 871.3881553597189 509.792 871.388 C 515.7213386552053 871.508909167537 520.4362859295989 876.4022598523131 520.337 882.332 Z" stroke-linecap="round" />
</g>
		<g transform="matrix(1 0 0 1 92.54 86.13)"  >
<path style="stroke: none; stroke-width: 1; stroke-dasharray: none; stroke-linecap: butt; stroke-dashoffset: 0; stroke-linejoin: miter; stroke-miterlimit: 4; fill: rgb(0,0,0); fill-rule: nonzero; opacity: 1;" vector-effect="non-scaling-stroke"  transform=" translate(-945.47, -882.35)" d="M 948.669 880.334 L 948.669 888.063 L 955.26 888.063 C 954.755819397419 889.6113096558204 953.8117289589354 890.9793199820294 952.543 892 C 950.8398657856708 893.5186605787808 948.633838900641 894.3513992042556 946.352 894.337 C 943.4842490220434 894.2725219174317 940.7460589133261 893.1299729087089 938.683 891.137 C 936.1900671791324 888.9417769246955 934.8060283928597 885.7491385800964 934.908 882.429 C 934.8024565776915 879.221869199728 936.0402900863917 876.116230106743 938.323 873.861 C 940.5165237906746 871.5681164003207 943.5792284310239 870.312581928037 946.751 870.406 C 949.1648632573009 870.3951150245756 951.5105249567001 871.2062745357194 953.4019999999999 872.7059999999999 C 953.9593353391186 873.1351479131451 954.4804256652532 873.60941369136 954.9599999999999 874.1239999999999 L 960.0329999999999 867.8929999999999 C 959.2251165852343 867.1409655093138 958.3714864640359 866.4396262078596 957.4769999999999 865.7929999999999 C 956.7037521933329 865.2444661497115 955.8889548401236 864.7569919843528 955.0399999999998 864.3349999999999 C 947.4359223425669 860.8382198255076 938.4606617817248 862.4214800114445 932.5119999999998 868.309 C 924.801917648424 876.0652870335732 924.7573567216114 888.5779952825593 932.4119999999998 896.389 C 935.9980050427087 900.1572114732217 940.9905564136664 902.2629232706097 946.1919999999998 902.201 C 951.4142013501842 902.3209378296968 956.4169628393977 900.1017669645673 959.8329999999997 896.15 C 961.355879426005 894.4532998708074 962.5132257586899 892.4613025946685 963.2329999999997 890.298 C 963.9298478763333 887.8638086813999 964.2667501608593 885.340747472585 964.2329999999997 882.809 L 964.2329999999997 880.372 L 948.669 880.372 Z" stroke-linecap="round" />
</g>
		<g transform="matrix(1 0 0 1 -80.02 -86.45)"  >
<path style="stroke: none; stroke-width: 1; stroke-dasharray: none; stroke-linecap: butt; stroke-dashoffset: 0; stroke-linejoin: miter; stroke-miterlimit: 4; fill: rgb(0,0,0); fill-rule: nonzero; opacity: 1;" vector-effect="non-scaling-stroke"  transform=" translate(-31.29, -20.65)" d="M 62.571 1.4 L 53.524 1.4 L 45.595 26.424 L 36.588 1.4 L 26.123 1.4 L 18.194 26.424 L 9.187 1.4 L 0 1.4 L 13.88 39.905 L 22.987000000000002 39.905 L 31.535000000000004 12.884 L 41.261 39.905 L 50.388000000000005 39.905 Z" stroke-linecap="round" />
</g>
		<g transform="matrix(1 0 0 1 92.58 -0.16)"  >
<path style="stroke: none; stroke-width: 1; stroke-dasharray: none; stroke-linecap: butt; stroke-dashoffset: 0; stroke-linejoin: miter; stroke-miterlimit: 4; fill: rgb(0,0,0); fill-rule: nonzero; opacity: 1;" vector-effect="non-scaling-stroke"  transform=" translate(-953.03, -452.58)" d="M 943.929 460.222 L 951.918 460.222 L 960.266 471.84499999999997 L 969.952 471.84499999999997 L 960.485 458.664 C 965.9623698562307 455.78177793203236 968.7671606968553 449.5348709465037 967.2816204733932 443.52638071721145 C 965.7960802499312 437.5178904879192 960.4034086485062 433.29772561617756 954.214 433.3 L 936.1 433.3 L 936.1 471.865 L 943.969 471.865 L 943.969 460.222 Z M 943.929 441.149 L 954.194 441.149 C 957.2823763210538 441.149 959.786 443.6526236789462 959.786 446.741 C 959.786 449.8293763210538 957.2823763210538 452.333 954.194 452.333 L 943.929 452.333 Z" stroke-linecap="round" />
</g>
</g>
</g>
</svg>